<?xml version="1.0" encoding="UTF-8"?>
<svg id="Capa_1" xmlns="http://www.w3.org/2000/svg" version="1.1" viewBox="0 0 902.44 282">
  <!-- Generator: Adobe Illustrator 30.2.1, SVG Export Plug-In . SVG Version: 2.1.1 Build 1)  -->
  <defs>
    <style>
      .st0 {
        fill: #fff;
      }
    </style>
  </defs>
  <g>
    <rect class="st0" x="9.22" y="38.38" width="64.04" height="64.04" rx="32.02" ry="32.02"/>
    <rect class="st0" x="166.29" y="38.38" width="64.04" height="64.04" rx="32.02" ry="32.02"/>
    <rect class="st0" x="90.62" y="38.38" width="64.04" height="64.04" rx="32.02" ry="32.02"/>
    <rect class="st0" x="166.29" y="183.3" width="64.04" height="64.04" rx="32.02" ry="32.02"/>
    <rect class="st0" x="87.75" y="183.3" width="64.04" height="64.04" rx="32.02" ry="32.02"/>
    <rect class="st0" x="87.75" y="110.84" width="142.58" height="64.04" rx="32.02" ry="32.02"/>
    <rect class="st0" x="9.22" y="110.84" width="64.04" height="64.04" rx="32.02" ry="32.02"/>
    <rect class="st0" x="9.22" y="110.84" width="64.04" height="136.5" rx="32.02" ry="32.02"/>
  </g>
  <g>
    <path class="st0" d="M286.83,84.52c0-2.29.41-4.42,1.25-6.4.83-1.97,1.95-3.69,3.35-5.15,1.4-1.45,3.07-2.6,4.99-3.43,1.92-.83,3.98-1.25,6.16-1.25s4.24.42,6.16,1.25c1.92.83,3.64,1.98,5.15,3.43,1.51,1.46,2.68,3.17,3.51,5.15.83,1.98,1.25,4.11,1.25,6.4s-.42,4.29-1.25,6.32c-.83,2.03-2,3.77-3.51,5.23-1.51,1.46-3.22,2.63-5.15,3.51-1.93.88-3.98,1.33-6.16,1.33s-4.24-.44-6.16-1.33c-1.93-.88-3.59-2.05-4.99-3.51-1.4-1.45-2.52-3.2-3.35-5.23-.83-2.03-1.25-4.13-1.25-6.32ZM289.79,105.11h25.74v76.44h-25.74v-76.44Z"/>
    <path class="st0" d="M377.46,129.76c-.31-.31-.91-.83-1.79-1.56-.88-.73-1.95-1.46-3.2-2.18-1.25-.73-2.71-1.35-4.37-1.87-1.67-.52-3.43-.78-5.3-.78-2.39,0-4.03.42-4.91,1.25-.88.83-1.33,1.72-1.33,2.65,0,1.25.55,2.26,1.64,3.04s2.57,1.48,4.45,2.11c2.7.94,5.95,1.85,9.75,2.73,3.8.88,7.41,2.16,10.84,3.82,3.43,1.67,6.34,3.9,8.74,6.71,2.39,2.81,3.59,6.66,3.59,11.54,0,3.85-.81,7.39-2.42,10.61-1.61,3.22-3.93,5.98-6.94,8.27-3.02,2.29-6.68,4.08-11,5.38-4.32,1.3-9.18,1.95-14.59,1.95-7.18,0-13.7-.94-19.58-2.81-5.88-1.87-10.58-4.52-14.12-7.96l15.13-17c.41.42,1.17,1.01,2.26,1.79s2.44,1.56,4.06,2.34c1.61.78,3.43,1.48,5.46,2.11,2.03.62,4.19.94,6.47.94,1.87,0,3.64-.26,5.3-.78,1.66-.52,2.5-1.61,2.5-3.28,0-1.14-.47-2.08-1.4-2.81-.94-.73-2.24-1.4-3.9-2.03-2.71-1.04-6.01-2.03-9.91-2.96-3.9-.94-7.67-2.21-11.31-3.82-3.64-1.61-6.73-3.82-9.28-6.63-2.55-2.81-3.82-6.55-3.82-11.23,0-3.85.8-7.38,2.42-10.61,1.61-3.22,3.9-5.98,6.86-8.27,2.96-2.29,6.55-4.06,10.76-5.3s8.97-1.87,14.27-1.87c4.06,0,7.75.37,11.08,1.09,3.33.73,6.24,1.59,8.74,2.57,2.5.99,4.58,2.03,6.24,3.12,1.66,1.09,2.91,2,3.74,2.73l-15.13,17Z"/>
    <path class="st0" d="M425.67,105.11l12.95,49.45h.31l13.1-49.45h29.02l-42.74,112.32h-28.08l15.13-36.19-28.7-76.13h29.02Z"/>
    <path class="st0" d="M531.59,129.76c-.31-.31-.91-.83-1.79-1.56-.88-.73-1.95-1.46-3.2-2.18-1.25-.73-2.71-1.35-4.37-1.87-1.66-.52-3.43-.78-5.3-.78-2.39,0-4.03.42-4.91,1.25-.89.83-1.33,1.72-1.33,2.65,0,1.25.55,2.26,1.64,3.04,1.09.78,2.57,1.48,4.45,2.11,2.7.94,5.95,1.85,9.75,2.73,3.8.88,7.41,2.16,10.84,3.82,3.43,1.67,6.34,3.9,8.74,6.71,2.39,2.81,3.59,6.66,3.59,11.54,0,3.85-.81,7.39-2.42,10.61-1.61,3.22-3.93,5.98-6.94,8.27-3.02,2.29-6.68,4.08-11,5.38-4.32,1.3-9.18,1.95-14.59,1.95-7.18,0-13.7-.94-19.58-2.81-5.88-1.87-10.58-4.52-14.12-7.96l15.13-17c.41.42,1.17,1.01,2.26,1.79s2.44,1.56,4.06,2.34c1.61.78,3.43,1.48,5.46,2.11s4.19.94,6.47.94c1.87,0,3.64-.26,5.3-.78,1.66-.52,2.5-1.61,2.5-3.28,0-1.14-.47-2.08-1.4-2.81-.94-.73-2.24-1.4-3.9-2.03-2.71-1.04-6.01-2.03-9.91-2.96-3.9-.94-7.67-2.21-11.31-3.82-3.64-1.61-6.74-3.82-9.28-6.63-2.55-2.81-3.82-6.55-3.82-11.23,0-3.85.8-7.38,2.42-10.61,1.61-3.22,3.9-5.98,6.86-8.27,2.96-2.29,6.55-4.06,10.76-5.3s8.97-1.87,14.27-1.87c4.06,0,7.75.37,11.08,1.09,3.33.73,6.24,1.59,8.74,2.57,2.5.99,4.58,2.03,6.24,3.12,1.66,1.09,2.91,2,3.74,2.73l-15.13,17Z"/>
    <path class="st0" d="M554.06,143.64c0-5.51,1.07-10.69,3.2-15.52,2.13-4.84,5.12-9.05,8.97-12.64,3.85-3.59,8.42-6.42,13.73-8.5,5.3-2.08,11.13-3.12,17.47-3.12s12.17,1.04,17.47,3.12c5.3,2.08,9.88,4.91,13.73,8.5,3.85,3.59,6.84,7.8,8.97,12.64,2.13,4.84,3.2,10.01,3.2,15.52s-1.07,10.69-3.2,15.52c-2.13,4.84-5.12,9.05-8.97,12.64-3.85,3.59-8.42,6.42-13.73,8.5-5.3,2.08-11.13,3.12-17.47,3.12s-12.17-1.04-17.47-3.12c-5.3-2.08-9.88-4.91-13.73-8.5-3.85-3.59-6.84-7.8-8.97-12.64-2.13-4.84-3.2-10.01-3.2-15.52ZM579.17,143.33c0,2.5.44,4.81,1.33,6.94.88,2.13,2.11,4.03,3.67,5.69,1.56,1.67,3.46,2.96,5.69,3.9,2.24.94,4.65,1.4,7.25,1.4s5.15-.47,7.33-1.4,4.06-2.23,5.62-3.9c1.56-1.66,2.78-3.56,3.67-5.69.88-2.13,1.33-4.45,1.33-6.94s-.44-4.81-1.33-6.94c-.88-2.13-2.11-4.03-3.67-5.69-1.56-1.66-3.43-2.96-5.62-3.9-2.18-.94-4.63-1.4-7.33-1.4s-5.02.47-7.25,1.4c-2.24.94-4.13,2.24-5.69,3.9-1.56,1.66-2.78,3.56-3.67,5.69-.88,2.13-1.33,4.45-1.33,6.94Z"/>
    <path class="st0" d="M724.1,162.05c-1.15,3.12-2.89,5.96-5.23,8.5-2.34,2.55-5.1,4.73-8.27,6.55-3.17,1.82-6.68,3.22-10.53,4.21-3.85.99-7.91,1.48-12.17,1.48-6.14,0-11.81-.96-17-2.89-5.2-1.92-9.67-4.65-13.42-8.19-3.74-3.53-6.68-7.72-8.81-12.56-2.13-4.84-3.2-10.11-3.2-15.83s1.06-11.13,3.2-15.91c2.13-4.78,5.07-8.94,8.81-12.48,3.74-3.53,8.21-6.26,13.42-8.19,5.2-1.92,10.87-2.89,17-2.89,4.26,0,8.32.49,12.17,1.48,3.85.99,7.36,2.39,10.53,4.21,3.17,1.82,5.93,4.01,8.27,6.55,2.34,2.55,4.08,5.38,5.23,8.5l-19.97,9.83c-1.35-2.7-3.46-4.91-6.32-6.63-2.86-1.72-6.01-2.57-9.44-2.57-2.5,0-4.84.47-7.02,1.4-2.18.94-4.08,2.21-5.69,3.82s-2.89,3.51-3.82,5.69c-.94,2.18-1.4,4.52-1.4,7.02s.47,4.99,1.4,7.18,2.21,4.11,3.82,5.77c1.61,1.67,3.51,2.96,5.69,3.9,2.18.94,4.52,1.4,7.02,1.4,3.43,0,6.58-.86,9.44-2.57,2.86-1.72,4.96-3.92,6.32-6.63l19.97,9.83Z"/>
    <path class="st0" d="M729.71,84.52c0-2.29.41-4.42,1.25-6.4.83-1.97,1.95-3.69,3.35-5.15,1.4-1.45,3.07-2.6,4.99-3.43,1.92-.83,3.98-1.25,6.16-1.25s4.24.42,6.16,1.25c1.92.83,3.64,1.98,5.15,3.43,1.51,1.46,2.68,3.17,3.51,5.15.83,1.98,1.25,4.11,1.25,6.4s-.42,4.29-1.25,6.32c-.83,2.03-2,3.77-3.51,5.23-1.51,1.46-3.23,2.63-5.15,3.51-1.93.88-3.98,1.33-6.16,1.33s-4.24-.44-6.16-1.33c-1.93-.88-3.59-2.05-4.99-3.51-1.4-1.45-2.52-3.2-3.35-5.23-.83-2.03-1.25-4.13-1.25-6.32ZM732.68,105.11h25.74v76.44h-25.74v-76.44Z"/>
    <path class="st0" d="M770.43,116.03c.62-.73,1.9-1.79,3.82-3.2,1.92-1.4,4.37-2.81,7.33-4.21,2.96-1.4,6.42-2.63,10.37-3.67,3.95-1.04,8.27-1.56,12.95-1.56s9.38.55,13.81,1.64c4.42,1.09,8.35,2.89,11.78,5.38s6.16,5.77,8.19,9.83c2.03,4.06,3.04,9.05,3.04,14.98v46.33h-21.84l-1.87-8.89c-2.39,3.33-5.41,5.9-9.05,7.72-3.64,1.82-8.17,2.73-13.57,2.73-4.16,0-7.83-.6-11-1.79-3.17-1.19-5.83-2.83-7.96-4.91-2.13-2.08-3.74-4.52-4.84-7.33s-1.64-5.82-1.64-9.05.7-6.5,2.11-9.52c1.4-3.01,3.64-5.64,6.71-7.88,3.07-2.23,7.04-4.03,11.93-5.38,4.89-1.35,10.82-2.03,17.78-2.03h9.05v-.62c0-3.12-1.12-5.56-3.35-7.33-2.24-1.77-5.9-2.65-11-2.65-2.29,0-4.5.31-6.63.94-2.13.62-4.06,1.35-5.77,2.18-1.72.83-3.2,1.69-4.45,2.57-1.25.89-2.13,1.59-2.65,2.11l-13.26-16.38ZM817.54,148.79h-8.11c-5.2,0-8.79.96-10.76,2.89-1.98,1.93-2.96,4.08-2.96,6.47,0,1.77.68,3.43,2.03,4.99,1.35,1.56,3.53,2.34,6.55,2.34,1.25,0,2.65-.31,4.21-.94,1.56-.62,2.99-1.56,4.29-2.81,1.3-1.25,2.42-2.83,3.35-4.76.94-1.92,1.4-4.13,1.4-6.63v-1.56Z"/>
    <path class="st0" d="M879.79,181.55h-25.74v-112.32h25.74v112.32Z"/>
  </g>
</svg>