<?xml version="1.0" encoding="UTF-8"?>
<svg id="Capa_1" xmlns="http://www.w3.org/2000/svg" version="1.1" viewBox="0 0 474.46 484.57">
  <!-- Generator: Adobe Illustrator 30.2.1, SVG Export Plug-In . SVG Version: 2.1.1 Build 1)  -->
  <defs>
    <style>
      .st0 {
        fill: #fff;
      }
    </style>
  </defs>
  <path class="st0" d="M139.26,177.25c11.75,14.84,23.33,29.61,34.63,44.48,11.31,14.87,22.35,29.85,33.18,45.15,10.83,15.3,21.46,30.95,32.07,47.02,10.61,16.06,21.22,32.54,31.96,49.34l-19.51,2.41,101.01-234.74,3.79,4.77c-19.4,4.62-38.39,9.17-56.95,13.45-18.56,4.28-36.67,8.26-54.5,11.79-17.83,3.54-35.39,6.62-52.94,9.29-17.54,2.68-35.08,4.96-52.74,7.03ZM95.05,158.56c22.13-3.88,44.37-7.55,66.62-10.82,22.24-3.28,44.46-6.15,66.42-8.55,21.96-2.42,43.63-4.38,64.86-6.05,21.23-1.67,42.02-3.07,62.41-4.4h.19c1.97-.14,3.67,1.35,3.8,3.32.03.5-.05,1-.2,1.44l-86.72,240.38c-2.06,5.71-8.36,8.67-14.08,6.61-1.98-.71-3.62-1.93-4.85-3.46l-.58-.74c-13.4-16.85-26.93-34.01-40.46-51.59-13.53-17.57-27.04-35.57-40.36-53.92-13.32-18.34-26.42-37.01-39.25-55.78-12.83-18.78-25.4-37.65-37.79-56.45Z"/>
  <circle class="st0" cx="117.15" cy="167.91" r="34.83"/>
  <circle class="st0" cx="355.86" cy="132.22" r="20.6"/>
  <circle class="st0" cx="262" cy="369.78" r="28.32"/>
  <g>
    <path class="st0" d="M362.26,173.94c9.09,17.85,14.22,38.06,14.22,59.47,0,49.98-27.94,93.44-69.05,115.61,2.27,4.93,3.71,10.14,4.27,15.46,47.75-24.27,80.46-73.85,80.46-131.07,0-23.23-5.4-45.2-15-64.73-4.52,2.64-9.56,4.45-14.9,5.26Z"/>
    <path class="st0" d="M161.14,132.6c22.77-19.01,52.08-30.46,84.06-30.46,25.59,0,49.47,7.33,69.66,20,1.3-5.3,3.59-10.13,6.59-14.37-22.23-13.52-48.33-21.31-76.25-21.31-36.49,0-69.86,13.3-95.55,35.32,4.35,3.07,8.21,6.72,11.49,10.82Z"/>
    <path class="st0" d="M212.9,360.66c-56.87-14.39-98.96-65.91-98.96-127.25,0-3.07.11-6.11.32-9.13-3.53-.18-7.05-.69-10.51-1.53-1.7-.42-3.37-.92-4.99-1.48-.33,4-.5,8.05-.5,12.13,0,69.93,48.85,128.45,114.29,143.3-.74-5.22-.66-10.62.35-16.04Z"/>
  </g>
  <circle class="st0" cx="257.81" cy="221.27" r="30.2"/>
</svg>