<?xml version="1.0" encoding="UTF-8"?>
<svg id="Capa_1" xmlns="http://www.w3.org/2000/svg" version="1.1" viewBox="0 0 1001.21 484.57">
  <!-- Generator: Adobe Illustrator 30.2.1, SVG Export Plug-In . SVG Version: 2.1.1 Build 1)  -->
  <defs>
    <style>
      .st0 {
        fill: #fff;
      }
    </style>
  </defs>
  <g>
    <path class="st0" d="M322.52,181.35h29.53v20.77h-29.53v-20.77ZM323.12,209.39h28.34v80.28h-28.34v-80.28Z"/>
    <path class="st0" d="M398.94,291.45c-6.83,0-13.46-.96-19.88-2.89-6.43-1.93-12.46-4.92-18.1-8.98l10.54-17.06c4.65,3.07,9.37,5.37,14.17,6.9,4.8,1.54,9.27,2.3,13.43,2.3,4.75,0,7.12-1.43,7.12-4.3v-.3c0-1.58-1.09-2.82-3.26-3.71-2.18-.89-5.39-1.93-9.64-3.12-3.96-.99-7.67-2.15-11.13-3.49-3.46-1.33-6.48-2.97-9.05-4.9-2.57-1.93-4.6-4.28-6.08-7.05-1.48-2.77-2.23-6.18-2.23-10.24v-.3c0-4.25.82-8.04,2.45-11.35,1.63-3.31,3.88-6.08,6.75-8.31,2.87-2.23,6.26-3.93,10.17-5.12,3.91-1.19,8.18-1.78,12.83-1.78,5.94,0,11.77.82,17.51,2.45,5.74,1.63,10.93,3.93,15.58,6.9l-9.65,17.81c-4.15-2.28-8.36-4.08-12.61-5.42-4.25-1.33-7.96-2-11.13-2-2.18,0-3.81.37-4.9,1.11-1.09.74-1.63,1.66-1.63,2.75v.3c0,1.58,1.11,2.84,3.34,3.78,2.23.94,5.46,2.05,9.72,3.34,3.96,1.09,7.67,2.3,11.13,3.64,3.46,1.34,6.48,2.97,9.05,4.9,2.57,1.93,4.6,4.28,6.08,7.05,1.48,2.77,2.23,6.08,2.23,9.94v.3c0,4.45-.79,8.34-2.38,11.65-1.58,3.32-3.81,6.11-6.68,8.38-2.87,2.28-6.33,3.98-10.39,5.12-4.06,1.14-8.51,1.71-13.35,1.71Z"/>
    <path class="st0" d="M467.05,313.86c-5.04,0-9.67-.64-13.87-1.92-4.21-1.28-8.19-2.95-11.95-5.01l8.75-19.63c2.27,1.39,4.5,2.45,6.68,3.19,2.17.74,4.05,1.11,5.64,1.11,1.38,0,2.6-.22,3.64-.67,1.04-.45,2-1.32,2.89-2.6l-31.46-78.94h29.53l16.03,48.38,15.14-48.38h28.94l-29.38,78.35c-1.78,4.65-3.61,8.63-5.49,11.95-1.88,3.31-4.01,6.01-6.38,8.09s-5.1,3.61-8.16,4.6c-3.07.99-6.58,1.48-10.54,1.48Z"/>
    <path class="st0" d="M568.1,291.45c-6.83,0-13.46-.96-19.88-2.89-6.43-1.93-12.46-4.92-18.1-8.98l10.54-17.06c4.65,3.07,9.37,5.37,14.17,6.9,4.8,1.54,9.27,2.3,13.43,2.3,4.75,0,7.12-1.43,7.12-4.3v-.3c0-1.58-1.09-2.82-3.26-3.71-2.18-.89-5.39-1.93-9.64-3.12-3.96-.99-7.67-2.15-11.13-3.49-3.46-1.33-6.48-2.97-9.05-4.9-2.57-1.93-4.6-4.28-6.08-7.05-1.48-2.77-2.23-6.18-2.23-10.24v-.3c0-4.25.82-8.04,2.45-11.35,1.63-3.31,3.88-6.08,6.75-8.31,2.87-2.23,6.26-3.93,10.17-5.12,3.91-1.19,8.18-1.78,12.83-1.78,5.94,0,11.77.82,17.51,2.45,5.74,1.63,10.93,3.93,15.58,6.9l-9.65,17.81c-4.15-2.28-8.36-4.08-12.61-5.42-4.25-1.33-7.96-2-11.13-2-2.18,0-3.81.37-4.9,1.11-1.09.74-1.63,1.66-1.63,2.75v.3c0,1.58,1.11,2.84,3.34,3.78,2.23.94,5.46,2.05,9.72,3.34,3.96,1.09,7.67,2.3,11.13,3.64,3.46,1.34,6.48,2.97,9.05,4.9,2.57,1.93,4.6,4.28,6.08,7.05,1.48,2.77,2.23,6.08,2.23,9.94v.3c0,4.45-.79,8.34-2.38,11.65-1.58,3.32-3.81,6.11-6.68,8.38-2.87,2.28-6.33,3.98-10.39,5.12-4.06,1.14-8.51,1.71-13.35,1.71Z"/>
    <path class="st0" d="M653.42,291.6c-6.43,0-12.34-1.09-17.73-3.26-5.39-2.17-10.07-5.17-14.02-8.98-3.96-3.81-7.03-8.24-9.2-13.28-2.18-5.04-3.26-10.44-3.26-16.17v-.3c0-5.74,1.11-11.15,3.34-16.25,2.23-5.09,5.32-9.55,9.27-13.35,3.96-3.81,8.66-6.83,14.1-9.05,5.44-2.23,11.38-3.34,17.81-3.34s12.34,1.11,17.73,3.34c5.39,2.23,10.07,5.22,14.02,8.98,3.96,3.76,7.02,8.16,9.2,13.21,2.17,5.04,3.26,10.44,3.26,16.17v.3c0,5.74-1.11,11.15-3.34,16.25-2.23,5.1-5.32,9.55-9.27,13.36-3.96,3.81-8.66,6.83-14.1,9.05-5.44,2.23-11.38,3.34-17.81,3.34ZM653.72,267.56c2.57,0,4.9-.47,6.97-1.4,2.08-.93,3.83-2.21,5.27-3.83,1.43-1.62,2.55-3.51,3.34-5.67.79-2.16,1.19-4.42,1.19-6.77v-.29c0-2.45-.42-4.76-1.26-6.92-.84-2.16-2.03-4.05-3.56-5.67-1.53-1.62-3.34-2.92-5.42-3.9-2.08-.98-4.35-1.47-6.83-1.47s-4.9.47-6.97,1.4c-2.08.93-3.83,2.21-5.27,3.83-1.44,1.62-2.55,3.51-3.34,5.67-.79,2.16-1.19,4.41-1.19,6.77v.29c0,2.45.42,4.76,1.26,6.92.84,2.16,2.03,4.05,3.56,5.66,1.53,1.62,3.34,2.92,5.42,3.9,2.08.98,4.35,1.47,6.83,1.47Z"/>
    <path class="st0" d="M748.54,291.6c-6.04,0-11.62-1.11-16.77-3.34-5.14-2.23-9.57-5.22-13.28-8.98-3.71-3.76-6.63-8.18-8.75-13.28-2.13-5.09-3.19-10.46-3.19-16.1v-.3c0-5.64,1.06-11,3.19-16.1,2.13-5.09,5.07-9.55,8.83-13.35,3.76-3.81,8.29-6.83,13.58-9.05,5.29-2.23,11.1-3.34,17.44-3.34,8.31,0,15.23,1.63,20.77,4.9,5.54,3.26,10.04,7.62,13.5,13.06l-19.14,14.25c-1.98-2.67-4.11-4.75-6.38-6.23-2.28-1.48-5.14-2.23-8.61-2.23-2.28,0-4.38.47-6.31,1.41-1.93.94-3.59,2.23-4.97,3.86-1.39,1.63-2.47,3.51-3.26,5.64-.79,2.13-1.19,4.43-1.19,6.9v.3c0,2.57.39,4.97,1.19,7.2.79,2.23,1.88,4.16,3.26,5.79,1.38,1.63,3.06,2.92,5.04,3.86,1.98.94,4.16,1.41,6.53,1.41,3.36,0,6.21-.74,8.53-2.23,2.32-1.48,4.62-3.51,6.9-6.08l18.84,13.65c-3.76,5.54-8.46,9.99-14.1,13.35s-12.86,5.04-21.67,5.04Z"/>
    <path class="st0" d="M794.24,181.35h29.53v20.77h-29.53v-20.77ZM794.83,209.39h28.34v80.28h-28.34v-80.28Z"/>
    <path class="st0" d="M861.75,291.45c-3.86,0-7.42-.54-10.68-1.63-3.26-1.09-6.11-2.67-8.53-4.75-2.42-2.08-4.33-4.65-5.71-7.72-1.39-3.07-2.08-6.63-2.08-10.68v-.3c0-4.16.76-7.81,2.3-10.98,1.53-3.17,3.66-5.79,6.38-7.87,2.72-2.08,6.01-3.66,9.87-4.75,3.86-1.09,8.16-1.63,12.91-1.63,3.76,0,7.35.32,10.76.96,3.41.64,6.26,1.36,8.53,2.15v-1.33c0-4.16-1.31-7.37-3.93-9.65-2.62-2.27-6.65-3.41-12.09-3.41-4.25,0-8.11.4-11.57,1.19-3.46.79-6.97,1.88-10.54,3.26l-5.79-19.88c4.55-1.88,9.37-3.39,14.47-4.53,5.09-1.14,11.1-1.71,18.03-1.71s13.33.84,18.33,2.52c4.99,1.68,9.08,4.11,12.24,7.27,3.07,2.97,5.27,6.55,6.6,10.76,1.33,4.21,2,9.13,2,14.76v46.15h-27.9v-8.31c-2.77,3.07-6.06,5.52-9.87,7.34-3.81,1.83-8.38,2.75-13.73,2.75ZM871.84,273.79c4.16,0,7.52-1.19,10.09-3.56,2.57-2.38,3.86-5.59,3.86-9.65v-3.71c-1.39-.59-3.04-1.09-4.97-1.48-1.93-.39-3.93-.59-6.01-.59-4.15,0-7.34.92-9.57,2.75-2.23,1.83-3.34,4.23-3.34,7.2v.3c0,2.77.94,4.92,2.82,6.46,1.88,1.54,4.25,2.3,7.12,2.3Z"/>
    <path class="st0" d="M928.23,181.35h28.34v108.32h-28.34v-108.32Z"/>
  </g>
  <path class="st0" d="M85.91,195.15c8.52,10.75,16.91,21.46,25.1,32.24,8.2,10.78,16.2,21.63,24.05,32.73,7.85,11.09,15.55,22.43,23.24,34.08,7.69,11.64,15.38,23.59,23.17,35.76l-14.14,1.75,73.21-170.15,2.75,3.46c-14.06,3.35-27.83,6.65-41.28,9.75-13.45,3.1-26.58,5.99-39.5,8.55-12.92,2.57-25.65,4.8-38.37,6.74-12.72,1.94-25.43,3.6-38.23,5.09ZM53.86,181.6c16.04-2.81,32.16-5.47,48.29-7.84,16.12-2.37,32.23-4.45,48.14-6.2,15.92-1.75,31.62-3.17,47.01-4.39,15.39-1.21,30.46-2.23,45.24-3.19h.14c1.43-.1,2.66.98,2.75,2.41.02.36-.03.73-.15,1.05l-62.85,174.24c-1.49,4.14-6.06,6.29-10.2,4.79-1.43-.52-2.63-1.4-3.51-2.51l-.42-.53c-9.71-12.21-19.52-24.65-29.33-37.4-9.81-12.74-19.6-25.78-29.25-39.08-9.65-13.29-19.15-26.82-28.45-40.43-9.3-13.61-18.41-27.29-27.39-40.92Z"/>
  <circle class="st0" cx="69.89" cy="188.37" r="25.25"/>
  <circle class="st0" cx="242.91" cy="162.5" r="14.93"/>
  <circle class="st0" cx="174.88" cy="334.69" r="20.53"/>
  <g>
    <path class="st0" d="M247.55,192.74c6.59,12.94,10.3,27.59,10.3,43.1,0,36.23-20.25,67.73-50.05,83.8,1.64,3.58,2.69,7.35,3.1,11.21,34.61-17.59,58.32-53.53,58.32-95.01,0-16.84-3.91-32.76-10.87-46.92-3.28,1.91-6.93,3.23-10.8,3.81Z"/>
    <path class="st0" d="M101.77,162.78c16.51-13.78,37.75-22.07,60.93-22.07,18.55,0,35.86,5.31,50.49,14.49.94-3.84,2.6-7.34,4.78-10.42-16.11-9.8-35.03-15.44-55.27-15.44-26.45,0-50.64,9.64-69.26,25.6,3.15,2.23,5.95,4.87,8.33,7.84Z"/>
    <path class="st0" d="M139.29,328.08c-41.22-10.43-71.73-47.77-71.73-92.24,0-2.22.08-4.43.23-6.62-2.56-.13-5.11-.5-7.61-1.11-1.24-.3-2.44-.66-3.62-1.07-.24,2.9-.36,5.83-.36,8.79,0,50.69,35.41,93.1,82.84,103.86-.53-3.78-.48-7.7.25-11.63Z"/>
  </g>
  <circle class="st0" cx="171.84" cy="227.05" r="21.89"/>
</svg>